<svg xmlns="http://www.w3.org/2000/svg" width="248.13" height="55" viewBox="0 0 248.13 55"><title>logo-mystore</title><g id="Objects"><polygon points="0 33.93 24.24 9.69 24.24 0 0 24.24 0 33.93" style="fill:#fff"/><polygon points="0 55 24.24 30.76 24.24 22.93 0 47.16 0 55" style="fill:#fff"/><polygon points="10.5 33.93 34.74 9.69 34.74 1.55 10.5 25.79 10.5 33.93" style="fill:#fff"/><polygon points="34.74 22.62 10.5 46.85 10.5 55 34.74 30.76 34.74 22.62" style="fill:#fff"/><path d="M48.83,13.12H52L51.6,14.8h0a4.65,4.65,0,0,1,1.8-1.51,5.62,5.62,0,0,1,2.37-.49,3.45,3.45,0,0,1,1.87.49,2.27,2.27,0,0,1,1,1.58,3.74,3.74,0,0,1,.76-.84,6.56,6.56,0,0,1,1-.66A5.17,5.17,0,0,1,61.57,13a4.68,4.68,0,0,1,1.16-.15,5.11,5.11,0,0,1,1.35.18,3.68,3.68,0,0,1,1.16.56,2.64,2.64,0,0,1,.81.94,2.85,2.85,0,0,1,.3,1.34,5.4,5.4,0,0,1-.12,1.12c-.07.37-.15.74-.23,1.09l-1.47,7H61.26l1.56-7.54c0-.17.06-.32.07-.46a2.68,2.68,0,0,0,0-.39,1.15,1.15,0,0,0-.4-.9,1.44,1.44,0,0,0-1-.37,2.19,2.19,0,0,0-1.18.31,3.67,3.67,0,0,0-.89.78,5,5,0,0,0-.63,1.05,6,6,0,0,0-.37,1.13L57.08,25H53.79l1.57-7.54a4.49,4.49,0,0,0,.06-.46,2.77,2.77,0,0,0,0-.39,1.16,1.16,0,0,0-.41-.9,1.42,1.42,0,0,0-1-.37,2.19,2.19,0,0,0-1.18.31,3.63,3.63,0,0,0-.88.78,4.68,4.68,0,0,0-.64,1.05A6,6,0,0,0,51,18.65L49.62,25H46.34Z" transform="translate(0 0)" style="fill:#fff"/><path d="M72.46,26.72A7,7,0,0,1,71.6,28a3.51,3.51,0,0,1-1,.78,4.09,4.09,0,0,1-1.21.38,10.83,10.83,0,0,1-1.61.1,8.46,8.46,0,0,1-.87-.05c-.29,0-.59-.05-.88-.06l.56-2.72a3.85,3.85,0,0,1,.66.06,3.18,3.18,0,0,0,.67.07,2.14,2.14,0,0,0,.92-.16,1.92,1.92,0,0,0,.58-.4,2.11,2.11,0,0,0,.37-.53,3.22,3.22,0,0,1,.3-.52L68,13.12h3.36l1,8.53h0l4.12-8.53H80Z" transform="translate(0 0)" style="fill:#fff"/><path d="M83,19.57A3.27,3.27,0,0,0,83.24,21,2.21,2.21,0,0,0,84,22a3.17,3.17,0,0,0,1.15.5,6.65,6.65,0,0,0,1.45.15,4.69,4.69,0,0,0,1.11-.14,3.31,3.31,0,0,0,1-.42,2.28,2.28,0,0,0,.74-.71,1.91,1.91,0,0,0,.29-1.06,1.41,1.41,0,0,0-.37-1,3.14,3.14,0,0,0-1-.66,9.33,9.33,0,0,0-1.33-.47l-1.51-.44A11,11,0,0,1,84,17.17a5.75,5.75,0,0,1-1.33-.83,3.8,3.8,0,0,1-1-1.24,4.2,4.2,0,0,1-.35-1.79A4.58,4.58,0,0,1,82,11a4.9,4.9,0,0,1,1.5-1.57,6.55,6.55,0,0,1,2.09-.9,9.84,9.84,0,0,1,2.36-.29,9.72,9.72,0,0,1,2.39.29,5.34,5.34,0,0,1,2,.93,4.63,4.63,0,0,1,1.34,1.65,5.45,5.45,0,0,1,.5,2.43H90.66a2.55,2.55,0,0,0-.19-1.16,2,2,0,0,0-.63-.78,2.36,2.36,0,0,0-1-.42A5,5,0,0,0,87.71,11a5.8,5.8,0,0,0-1,.1,3.14,3.14,0,0,0-.93.35,1.9,1.9,0,0,0-.66.63,1.78,1.78,0,0,0-.26,1,1.3,1.3,0,0,0,.45,1,3.83,3.83,0,0,0,1.08.65,7.68,7.68,0,0,0,1.31.42l1.08.24a12.66,12.66,0,0,1,1.77.59,4.79,4.79,0,0,1,1.4.86,3.73,3.73,0,0,1,.91,1.29A4.9,4.9,0,0,1,93.15,20a4.84,4.84,0,0,1-.61,2.51A5.16,5.16,0,0,1,91,24.18a6.65,6.65,0,0,1-2.15.95,9.76,9.76,0,0,1-2.38.3A7.85,7.85,0,0,1,81.31,24a5.45,5.45,0,0,1-1.71-4.43Z" transform="translate(0 0)" style="fill:#fff"/><path d="M100.83,13.12h2.35l-.51,2.19h-2.33l-1.22,5.92c0,.13-.05.24-.07.34s0,.17,0,.22a.94.94,0,0,0,.1.49.7.7,0,0,0,.27.27.79.79,0,0,0,.35.1h.38a9.45,9.45,0,0,0,1.18-.07l-.55,2.54-1,.08c-.34,0-.68,0-1,0a6.3,6.3,0,0,1-1.15-.1,2.93,2.93,0,0,1-1-.38,2.19,2.19,0,0,1-.71-.74,2.16,2.16,0,0,1-.26-1.2,3.61,3.61,0,0,1,0-.52c0-.19.07-.39.12-.61l1.33-6.38H95l.51-2.19h2.09l.74-3.62h3.27Z" transform="translate(0 0)" style="fill:#fff"/><path d="M103.65,17.35A7,7,0,0,1,105,15a6.34,6.34,0,0,1,2.15-1.6A6.62,6.62,0,0,1,110,12.8a7.7,7.7,0,0,1,2.25.31A5,5,0,0,1,114,14a4.22,4.22,0,0,1,1.14,1.57,5.67,5.67,0,0,1,.4,2.24,8.78,8.78,0,0,1-.47,2.93,6.89,6.89,0,0,1-1.37,2.39,6.4,6.4,0,0,1-2.19,1.6,7,7,0,0,1-2.9.59,5.86,5.86,0,0,1-4-1.29,4.83,4.83,0,0,1-1.48-3.85A8.51,8.51,0,0,1,103.65,17.35Zm2.95,3.88a2.52,2.52,0,0,0,.45.86,2.12,2.12,0,0,0,.74.58,2.18,2.18,0,0,0,1,.22,2.56,2.56,0,0,0,1.58-.49,4,4,0,0,0,1.08-1.25,5.69,5.69,0,0,0,.63-1.62,7.09,7.09,0,0,0,.21-1.64,3,3,0,0,0-.55-1.91,2.18,2.18,0,0,0-1.84-.72,2.53,2.53,0,0,0-1.56.5A3.84,3.84,0,0,0,107.28,17a5.85,5.85,0,0,0-.62,1.6,6.94,6.94,0,0,0-.21,1.63A3.38,3.38,0,0,0,106.6,21.23Z" transform="translate(0 0)" style="fill:#fff"/><path d="M118.82,13.12h3.12l-.49,2.14,0,.05a3.89,3.89,0,0,1,1.67-1.88,4.84,4.84,0,0,1,2.43-.63,7.15,7.15,0,0,1,1,.07L126,16.05l-.7-.14a3.23,3.23,0,0,0-.69-.07,3.68,3.68,0,0,0-1.6.32,3.31,3.31,0,0,0-1.11.88,4.94,4.94,0,0,0-.71,1.25,10,10,0,0,0-.43,1.47L119.61,25h-3.27Z" transform="translate(0 0)" style="fill:#fff"/><path d="M129,19.87c0,.16,0,.29,0,.4v.29a2.28,2.28,0,0,0,.65,1.69,2.7,2.7,0,0,0,2,.64,2.41,2.41,0,0,0,1.53-.53,2.85,2.85,0,0,0,.51-.53l.4-.57h3.27a8.18,8.18,0,0,1-.92,1.77,5,5,0,0,1-1.27,1.28,5.15,5.15,0,0,1-1.71.78,8.62,8.62,0,0,1-2.27.27,6.52,6.52,0,0,1-2.18-.34,4.44,4.44,0,0,1-1.67-1,4.33,4.33,0,0,1-1.07-1.63,6.07,6.07,0,0,1-.38-2.25,8.23,8.23,0,0,1,.46-2.75,7.36,7.36,0,0,1,1.3-2.35,6.24,6.24,0,0,1,2.06-1.64,6,6,0,0,1,2.74-.61,7.68,7.68,0,0,1,2.27.32,4.72,4.72,0,0,1,1.76,1,4.49,4.49,0,0,1,1.13,1.64,6.09,6.09,0,0,1,.4,2.27,9.61,9.61,0,0,1-.18,1.86Zm5.81-2.07a5.5,5.5,0,0,0-.08-.91,2.32,2.32,0,0,0-.31-.82,1.69,1.69,0,0,0-.67-.59,2.64,2.64,0,0,0-1.15-.22,3.28,3.28,0,0,0-1.22.21,3,3,0,0,0-.92.55,3.21,3.21,0,0,0-.66.81,5.7,5.7,0,0,0-.45,1Z" transform="translate(0 0)" style="fill:#fff"/><path d="M148.76,19.57A3.27,3.27,0,0,0,149,21a2.14,2.14,0,0,0,.74.93,3.09,3.09,0,0,0,1.15.5,6.59,6.59,0,0,0,1.45.15,4.69,4.69,0,0,0,1.11-.14,3.42,3.42,0,0,0,1-.42,2.39,2.39,0,0,0,.74-.71,1.91,1.91,0,0,0,.28-1.06,1.4,1.4,0,0,0-.36-1,3.14,3.14,0,0,0-1-.66,9.06,9.06,0,0,0-1.34-.47l-1.51-.44a11.51,11.51,0,0,1-1.52-.56,5.9,5.9,0,0,1-1.32-.83,3.67,3.67,0,0,1-1-1.24,4.05,4.05,0,0,1-.36-1.79A4.59,4.59,0,0,1,147.7,11a4.7,4.7,0,0,1,1.5-1.57,6.5,6.5,0,0,1,2.08-.9,10,10,0,0,1,2.37-.29,9.58,9.58,0,0,1,2.38.29,5.31,5.31,0,0,1,2,.93,4.63,4.63,0,0,1,1.34,1.65,5.46,5.46,0,0,1,.49,2.43h-3.43a2.54,2.54,0,0,0-.2-1.16,1.91,1.91,0,0,0-.62-.78,2.47,2.47,0,0,0-1-.42,4.88,4.88,0,0,0-1.17-.13,6,6,0,0,0-1,.1,3.08,3.08,0,0,0-.92.35,1.93,1.93,0,0,0-.67.63,1.77,1.77,0,0,0-.25,1,1.3,1.3,0,0,0,.45,1,3.83,3.83,0,0,0,1.08.65,7.58,7.58,0,0,0,1.3.42l1.09.24a13.11,13.11,0,0,1,1.77.59,4.73,4.73,0,0,1,1.39.86,3.48,3.48,0,0,1,.91,1.29,4.71,4.71,0,0,1,.33,1.87,4.94,4.94,0,0,1-.61,2.51,5.16,5.16,0,0,1-1.57,1.68,6.8,6.8,0,0,1-2.16.95,9.62,9.62,0,0,1-2.37.3A7.88,7.88,0,0,1,147,24a5.47,5.47,0,0,1-1.7-4.43Z" transform="translate(0 0)" style="fill:#fff"/><path d="M161.53,16.74a4.33,4.33,0,0,1,.68-1.88,4,4,0,0,1,1.29-1.21,5.4,5.4,0,0,1,1.72-.66,9.63,9.63,0,0,1,1.95-.19,14.47,14.47,0,0,1,1.68.11,5.86,5.86,0,0,1,1.62.45,3.17,3.17,0,0,1,1.21,1,2.54,2.54,0,0,1,.45,1.61,6.56,6.56,0,0,1-.07.92c-.05.36-.11.72-.18,1.09l-1.06,4.79a3.34,3.34,0,0,0-.13.8c0,.31,0,.58,0,.81a2.15,2.15,0,0,0,.12.7H167.5V23.86A4.13,4.13,0,0,1,165.85,25a5.52,5.52,0,0,1-2,.37,5.15,5.15,0,0,1-1.7-.26,3.25,3.25,0,0,1-1.21-.69,2.81,2.81,0,0,1-.72-1,2.86,2.86,0,0,1-.25-1.19,3.47,3.47,0,0,1,1.21-2.76,6.2,6.2,0,0,1,3.36-1.29l2-.21a8.71,8.71,0,0,0,1.42-.22,1.67,1.67,0,0,0,.84-.44,1.22,1.22,0,0,0,.28-.86,1.23,1.23,0,0,0-.21-.73,1.5,1.5,0,0,0-.52-.45,2.16,2.16,0,0,0-.68-.21A4.16,4.16,0,0,0,167,15a2.94,2.94,0,0,0-1.56.42,1.86,1.86,0,0,0-.86,1.33Zm6.91,2.58a3.19,3.19,0,0,1-1.33.45c-.48.05-1,.1-1.43.13a6.5,6.5,0,0,0-.9.15,2.54,2.54,0,0,0-.77.31,1.55,1.55,0,0,0-.55.56,1.89,1.89,0,0,0-.2.91,1.09,1.09,0,0,0,.54,1,2.28,2.28,0,0,0,1.25.34,3,3,0,0,0,1.28-.24,2.85,2.85,0,0,0,1.44-1.49,7,7,0,0,0,.35-1Z" transform="translate(0 0)" style="fill:#fff"/><path d="M176.6,8.58h3.27L176.37,25H173.1Z" transform="translate(0 0)" style="fill:#fff"/><path d="M182.73,19.87a3,3,0,0,0,0,.4v.29a2.28,2.28,0,0,0,.64,1.69,2.7,2.7,0,0,0,2,.64,2.37,2.37,0,0,0,.87-.15,2.59,2.59,0,0,0,.67-.38,2.52,2.52,0,0,0,.5-.53l.41-.57h3.27a8.65,8.65,0,0,1-.92,1.77,5.33,5.33,0,0,1-1.27,1.28,5.12,5.12,0,0,1-1.72.78,8.56,8.56,0,0,1-2.27.27A6.46,6.46,0,0,1,182.7,25,4.3,4.3,0,0,1,180,22.4a6.28,6.28,0,0,1-.38-2.25A8.49,8.49,0,0,1,180,17.4a7.39,7.39,0,0,1,1.31-2.35,6.14,6.14,0,0,1,2.06-1.64,6,6,0,0,1,2.74-.61,7.68,7.68,0,0,1,2.27.32,4.68,4.68,0,0,1,1.75,1,4.38,4.38,0,0,1,1.13,1.64,5.9,5.9,0,0,1,.4,2.27,9.61,9.61,0,0,1-.18,1.86Zm5.81-2.07a5.5,5.5,0,0,0-.08-.91,2.53,2.53,0,0,0-.31-.82,1.76,1.76,0,0,0-.67-.59,2.69,2.69,0,0,0-1.16-.22,3.32,3.32,0,0,0-1.22.21,3.12,3.12,0,0,0-.92.55,3.45,3.45,0,0,0-.66.81,6.54,6.54,0,0,0-.44,1Z" transform="translate(0 0)" style="fill:#fff"/><path d="M202.32,8.58h6.59a10.25,10.25,0,0,1,2.29.24,4.83,4.83,0,0,1,1.81.8,3.76,3.76,0,0,1,1.19,1.47,5.52,5.52,0,0,1,.43,2.28,5.64,5.64,0,0,1-.52,2.44,5.43,5.43,0,0,1-1.41,1.8,6.1,6.1,0,0,1-2,1.13,7.37,7.37,0,0,1-2.43.4h-4.47L202.5,25h-3.61Zm2,7.74H208a3.16,3.16,0,0,0,2.18-.7,2.76,2.76,0,0,0,.8-2.18,2.2,2.2,0,0,0-.22-1,1.54,1.54,0,0,0-.59-.62,2.8,2.8,0,0,0-.82-.32,4.73,4.73,0,0,0-.93-.09h-3.09Z" transform="translate(0 0)" style="fill:#fff"/><path d="M217.71,8.58h7.86a8,8,0,0,1,2,.21,4,4,0,0,1,1.55.74,3.3,3.3,0,0,1,1,1.33,5.32,5.32,0,0,1,.34,2,4.51,4.51,0,0,1-.28,1.59,4.12,4.12,0,0,1-.78,1.35,4.56,4.56,0,0,1-1.2,1,4.34,4.34,0,0,1-1.52.51v0a2.4,2.4,0,0,1,.84.45,2,2,0,0,1,.52.67,3.45,3.45,0,0,1,.27.84,5.89,5.89,0,0,1,.08.95c0,.36,0,.81-.06,1.32s-.06,1-.06,1.53,0,.72.05,1.05a3.51,3.51,0,0,0,.18.87H225q-.08-.3-.12-.57a3.29,3.29,0,0,1,0-.54,15.74,15.74,0,0,1,.1-1.67,15.71,15.71,0,0,0,.09-1.67,2.46,2.46,0,0,0-.17-1,1.49,1.49,0,0,0-.49-.61,1.68,1.68,0,0,0-.75-.31,4.78,4.78,0,0,0-1-.08h-3.42L217.87,25h-3.61ZM219.79,16h3.34a6.37,6.37,0,0,0,1.39-.14,3.81,3.81,0,0,0,1.2-.47,2.36,2.36,0,0,0,.83-.8,2.18,2.18,0,0,0,.31-1.19,2.21,2.21,0,0,0-.22-1.07,1.49,1.49,0,0,0-.58-.61,2.49,2.49,0,0,0-.86-.28,8.14,8.14,0,0,0-1-.07h-3.43Z" transform="translate(0 0)" style="fill:#fff"/><path d="M232.46,14.34a9.87,9.87,0,0,1,1.79-3.17A8.43,8.43,0,0,1,237.08,9a8.52,8.52,0,0,1,3.75-.81,9.62,9.62,0,0,1,3,.45,5.92,5.92,0,0,1,3.77,3.56,8.35,8.35,0,0,1,.51,3,12.43,12.43,0,0,1-.6,3.87,9.75,9.75,0,0,1-1.73,3.25,8.28,8.28,0,0,1-6.65,3.07,7.37,7.37,0,0,1-5.4-1.89,7.27,7.27,0,0,1-1.91-5.4A11.69,11.69,0,0,1,232.46,14.34Zm3.22,5.42a4,4,0,0,0,.67,1.35,3.19,3.19,0,0,0,1.15.93,3.8,3.8,0,0,0,1.69.35,4.26,4.26,0,0,0,2.33-.64,5.73,5.73,0,0,0,1.66-1.63,7.64,7.64,0,0,0,1-2.23,9.15,9.15,0,0,0,.34-2.4,6.74,6.74,0,0,0-.2-1.63,3.71,3.71,0,0,0-.63-1.36,3.22,3.22,0,0,0-1.14-.92,3.85,3.85,0,0,0-1.7-.35,4.45,4.45,0,0,0-2.41.64,5.34,5.34,0,0,0-1.68,1.63,7.55,7.55,0,0,0-1,2.24,9.67,9.67,0,0,0-.32,2.4A5.71,5.71,0,0,0,235.68,19.76Z" transform="translate(0 0)" style="fill:#fff"/><path d="M47.45,37.11a5,5,0,0,1,.91-1.67,4.51,4.51,0,0,1,1.49-1.16,4.76,4.76,0,0,1,2.09-.43,4.68,4.68,0,0,1,2.08.43,4.45,4.45,0,0,1,1.5,1.16,5,5,0,0,1,.9,1.67,6.62,6.62,0,0,1,0,3.94,5,5,0,0,1-.9,1.67A4.45,4.45,0,0,1,54,43.88a4.68,4.68,0,0,1-2.08.43,4.76,4.76,0,0,1-2.09-.43,4.51,4.51,0,0,1-1.49-1.16,5,5,0,0,1-.91-1.67,6.62,6.62,0,0,1,0-3.94Zm1.23,3.46a4,4,0,0,0,.61,1.32,3.2,3.2,0,0,0,1.08,1,3.7,3.7,0,0,0,3.14,0,3.26,3.26,0,0,0,1.07-1,4,4,0,0,0,.62-1.32,5.94,5.94,0,0,0,0-3,4,4,0,0,0-.62-1.32,3.26,3.26,0,0,0-1.07-1,3.7,3.7,0,0,0-3.14,0,3.2,3.2,0,0,0-1.08,1,4,4,0,0,0-.61,1.32,5.65,5.65,0,0,0,0,3Z" transform="translate(0 0)" style="fill:#fff"/><path d="M59,36.84H60.1V38h0a2.46,2.46,0,0,1,1-1,2.75,2.75,0,0,1,1.37-.33,3.11,3.11,0,0,1,1.19.2,1.91,1.91,0,0,1,.77.54,2.08,2.08,0,0,1,.42.84A4.45,4.45,0,0,1,65,39.32v4.76H63.78v-4.9a1.47,1.47,0,0,0-.4-1.07,1.45,1.45,0,0,0-1.07-.39,2.48,2.48,0,0,0-1,.17,1.68,1.68,0,0,0-.66.48,2,2,0,0,0-.4.72,2.84,2.84,0,0,0-.13.9v4.09H59Z" transform="translate(0 0)" style="fill:#fff"/><path d="M67.65,34.08h1.19v10H67.65Z" transform="translate(0 0)" style="fill:#fff"/><path d="M72.77,35.54H71.58V34.08h1.19Zm-1.19,1.3h1.19v7.24H71.58Z" transform="translate(0 0)" style="fill:#fff"/><path d="M75.44,36.84h1.12V38h0a2.44,2.44,0,0,1,1-1,2.82,2.82,0,0,1,1.38-.33,3.14,3.14,0,0,1,1.19.2,1.91,1.91,0,0,1,.77.54,2.06,2.06,0,0,1,.41.84,4.43,4.43,0,0,1,.12,1.07v4.76H80.24v-4.9a1.35,1.35,0,0,0-1.47-1.46,2.46,2.46,0,0,0-.94.17,1.61,1.61,0,0,0-.66.48,2,2,0,0,0-.4.72,2.83,2.83,0,0,0-.14.9v4.09H75.44Z" transform="translate(0 0)" style="fill:#fff"/><path d="M90.22,41.78a3,3,0,0,1-1,1.83,3.22,3.22,0,0,1-2,.63A3.7,3.7,0,0,1,85.62,44a3.14,3.14,0,0,1-1.07-.79A3.43,3.43,0,0,1,83.9,42a6,6,0,0,1-.24-1.52,4.35,4.35,0,0,1,.25-1.51,3.46,3.46,0,0,1,.71-1.19A3.2,3.2,0,0,1,85.69,37a3.42,3.42,0,0,1,1.37-.28,3,3,0,0,1,1.6.4,3.31,3.31,0,0,1,1,1,3.73,3.73,0,0,1,.53,1.34,5.61,5.61,0,0,1,.12,1.39H84.92a3,3,0,0,0,.11.9,2.09,2.09,0,0,0,.4.75,2,2,0,0,0,.72.53,2.48,2.48,0,0,0,1,.19,2,2,0,0,0,1.23-.35A1.62,1.62,0,0,0,89,41.78Zm-1.15-2a2.4,2.4,0,0,0-.19-.8,1.94,1.94,0,0,0-.43-.65,2.13,2.13,0,0,0-.65-.44,2.18,2.18,0,0,0-1.64,0A2,2,0,0,0,85.1,39a2.53,2.53,0,0,0-.18.79Z" transform="translate(0 0)" style="fill:#fff"/><path d="M93.12,41.79a1.36,1.36,0,0,0,.18.68,1.26,1.26,0,0,0,.44.42,1.79,1.79,0,0,0,.61.23,3.35,3.35,0,0,0,.71.07,4.08,4.08,0,0,0,.59,0,2.65,2.65,0,0,0,.57-.15,1.14,1.14,0,0,0,.42-.33.9.9,0,0,0,.17-.55.81.81,0,0,0-.2-.57,1.9,1.9,0,0,0-.53-.36,4.56,4.56,0,0,0-.76-.23l-.87-.19a7.92,7.92,0,0,1-.87-.23,3.57,3.57,0,0,1-.76-.37,1.84,1.84,0,0,1-.54-.57,1.78,1.78,0,0,1-.2-.87,1.69,1.69,0,0,1,.25-.94,1.9,1.9,0,0,1,.63-.63,2.67,2.67,0,0,1,.86-.37,4,4,0,0,1,1-.12,5.78,5.78,0,0,1,1.13.11,2.6,2.6,0,0,1,.92.36,1.88,1.88,0,0,1,.64.7,2.69,2.69,0,0,1,.28,1.1H96.56a1.14,1.14,0,0,0-.19-.58A1.37,1.37,0,0,0,96,38a1.81,1.81,0,0,0-.52-.2,2.25,2.25,0,0,0-.58-.07,4.9,4.9,0,0,0-.54,0,1.94,1.94,0,0,0-.5.15.94.94,0,0,0-.36.29.73.73,0,0,0-.14.45.64.64,0,0,0,.22.51,1.83,1.83,0,0,0,.55.33,4.56,4.56,0,0,0,.76.23l.84.19c.29.06.58.14.87.23a3.35,3.35,0,0,1,.76.37,2.1,2.1,0,0,1,.53.58,1.8,1.8,0,0,1,.2.87,2.07,2.07,0,0,1-.27,1.09,2,2,0,0,1-.72.7,2.88,2.88,0,0,1-1,.38,5.13,5.13,0,0,1-1.1.11,4.71,4.71,0,0,1-1.15-.13,3,3,0,0,1-1-.42,2,2,0,0,1-.67-.76,2.59,2.59,0,0,1-.28-1.14Z" transform="translate(0 0)" style="fill:#fff"/><path d="M101.86,36.84h1.44v1h-1.44v4.49a1.09,1.09,0,0,0,0,.34.29.29,0,0,0,.13.19.51.51,0,0,0,.27.09,2.86,2.86,0,0,0,.46,0h.54v1h-.91a4.46,4.46,0,0,1-.79-.07,1.17,1.17,0,0,1-.53-.23,1.06,1.06,0,0,1-.3-.47,2.65,2.65,0,0,1-.1-.82v-4.6H99.44v-1h1.23V34.67h1.19Z" transform="translate(0 0)" style="fill:#fff"/><path d="M105.28,39a3.18,3.18,0,0,1,.67-1.21,3.07,3.07,0,0,1,1.1-.8,4,4,0,0,1,3,0,3.1,3.1,0,0,1,1.11.8,3.32,3.32,0,0,1,.67,1.21,4.91,4.91,0,0,1,0,3,3.31,3.31,0,0,1-.67,1.19,3.13,3.13,0,0,1-1.11.81,4.08,4.08,0,0,1-3,0,3.09,3.09,0,0,1-1.1-.81,3.17,3.17,0,0,1-.67-1.19,4.91,4.91,0,0,1,0-3Zm1.21,2.65a2.32,2.32,0,0,0,.48.86,2,2,0,0,0,.72.52,2.15,2.15,0,0,0,.87.18,2.2,2.2,0,0,0,.88-.18,2.14,2.14,0,0,0,.72-.52,2.64,2.64,0,0,0,.48-.86,3.86,3.86,0,0,0,0-2.33,2.64,2.64,0,0,0-.48-.86,2.05,2.05,0,0,0-1.6-.72,2.15,2.15,0,0,0-.87.18,2,2,0,0,0-.72.54,2.32,2.32,0,0,0-.48.86,3.86,3.86,0,0,0,0,2.33Z" transform="translate(0 0)" style="fill:#fff"/><path d="M114.26,36.84h1.12v1.53h0a3.06,3.06,0,0,1,1.06-1.3,2.65,2.65,0,0,1,1.59-.4v1.26a3.33,3.33,0,0,0-1.21.2,1.86,1.86,0,0,0-.81.57,2.25,2.25,0,0,0-.45.93,4.62,4.62,0,0,0-.14,1.23v3.22h-1.19Z" transform="translate(0 0)" style="fill:#fff"/><path d="M125.7,41.78a2.86,2.86,0,0,1-1,1.83,3.22,3.22,0,0,1-2,.63,3.62,3.62,0,0,1-1.5-.28,3,3,0,0,1-1.07-.79,3.28,3.28,0,0,1-.65-1.21,5.56,5.56,0,0,1-.25-1.52,4.6,4.6,0,0,1,.25-1.51,3.62,3.62,0,0,1,.71-1.19,3.15,3.15,0,0,1,1.08-.79,3.37,3.37,0,0,1,1.36-.28,3,3,0,0,1,1.6.4,3.24,3.24,0,0,1,1,1,4.13,4.13,0,0,1,.53,1.34,6.13,6.13,0,0,1,.12,1.39H120.4a3,3,0,0,0,.11.9,2.11,2.11,0,0,0,.41.75,2,2,0,0,0,.71.53,2.48,2.48,0,0,0,1,.19,2,2,0,0,0,1.24-.35,1.66,1.66,0,0,0,.64-1.06Zm-1.14-2a2.67,2.67,0,0,0-.19-.8,2,2,0,0,0-.44-.65,2,2,0,0,0-.65-.44,2.17,2.17,0,0,0-.81-.16,2.19,2.19,0,0,0-.83.16,2.08,2.08,0,0,0-.64.44,2.48,2.48,0,0,0-.42.66,2.53,2.53,0,0,0-.18.79Z" transform="translate(0 0)" style="fill:#fff"/><path d="M133.08,37.89h-1.22v-1h1.22V35.76a1.69,1.69,0,0,1,.51-1.33,2.14,2.14,0,0,1,1.49-.46l.38,0a3,3,0,0,1,.39.08v1a1.69,1.69,0,0,0-.34-.08l-.33,0a1.14,1.14,0,0,0-.67.17.74.74,0,0,0-.24.64v1h1.4v1h-1.4v6.19h-1.19Z" transform="translate(0 0)" style="fill:#fff"/><path d="M137.12,39a3.32,3.32,0,0,1,.67-1.21,3.15,3.15,0,0,1,1.1-.8,4,4,0,0,1,3,0,3.1,3.1,0,0,1,1.11.8A3.47,3.47,0,0,1,143.7,39a5.12,5.12,0,0,1,0,3,3.47,3.47,0,0,1-.67,1.19,3.13,3.13,0,0,1-1.11.81,4.1,4.1,0,0,1-3,0,3.18,3.18,0,0,1-1.1-.81,3.31,3.31,0,0,1-.67-1.19,5.12,5.12,0,0,1,0-3Zm1.21,2.65a2.64,2.64,0,0,0,.48.86,2.08,2.08,0,0,0,.73.52,2.19,2.19,0,0,0,1.74,0,2,2,0,0,0,.72-.52,2.48,2.48,0,0,0,.49-.86,4.08,4.08,0,0,0,0-2.33,2.48,2.48,0,0,0-.49-.86,2,2,0,0,0-.72-.54,2.13,2.13,0,0,0-2.47.54,2.64,2.64,0,0,0-.48.86,4.08,4.08,0,0,0,0,2.33Z" transform="translate(0 0)" style="fill:#fff"/><path d="M146.1,36.84h1.12v1.53h0a3.15,3.15,0,0,1,1.07-1.3,2.64,2.64,0,0,1,1.59-.4v1.26a3.39,3.39,0,0,0-1.22.2,2,2,0,0,0-.81.57,2.52,2.52,0,0,0-.45.93,5.08,5.08,0,0,0-.14,1.23v3.22H146.1Z" transform="translate(0 0)" style="fill:#fff"/><path d="M156.39,36.84h1.19v1h0a1.74,1.74,0,0,1,.92-.87,3.31,3.31,0,0,1,1.38-.28,3.38,3.38,0,0,1,1.47.31,3,3,0,0,1,1,.83A3.67,3.67,0,0,1,163,39a5,5,0,0,1,.21,1.46,4.89,4.89,0,0,1-.21,1.45,3.4,3.4,0,0,1-.61,1.2,3,3,0,0,1-1,.81,3.29,3.29,0,0,1-1.45.3,4.54,4.54,0,0,1-.6-.05,3.11,3.11,0,0,1-.64-.19,2.84,2.84,0,0,1-.61-.35,2.07,2.07,0,0,1-.48-.54h0v3.74h-1.19Zm5.46,2.57a2.72,2.72,0,0,0-.4-.86,2,2,0,0,0-.7-.6,2.14,2.14,0,0,0-1-.23,2,2,0,0,0-1,.24,2.17,2.17,0,0,0-.69.62,2.4,2.4,0,0,0-.38.88,4.13,4.13,0,0,0-.12,1,4.34,4.34,0,0,0,.12,1,2.67,2.67,0,0,0,.4.87,1.91,1.91,0,0,0,.71.61,2.44,2.44,0,0,0,2.07,0,1.93,1.93,0,0,0,.67-.63,2.58,2.58,0,0,0,.36-.9,4.46,4.46,0,0,0,.12-1A3.64,3.64,0,0,0,161.85,39.41Z" transform="translate(0 0)" style="fill:#fff"/><path d="M165.43,36.84h1.12v1.53h0a3.15,3.15,0,0,1,1.07-1.3,2.65,2.65,0,0,1,1.59-.4v1.26a3.33,3.33,0,0,0-1.21.2,2,2,0,0,0-.82.57,2.36,2.36,0,0,0-.44.93,4.62,4.62,0,0,0-.14,1.23v3.22h-1.19Z" transform="translate(0 0)" style="fill:#fff"/><path d="M170.53,39a3.34,3.34,0,0,1,.68-1.21,3,3,0,0,1,1.09-.8,3.62,3.62,0,0,1,1.52-.3,3.57,3.57,0,0,1,1.51.3,3.1,3.1,0,0,1,1.11.8,3.32,3.32,0,0,1,.67,1.21,5.12,5.12,0,0,1,0,3,3.31,3.31,0,0,1-.67,1.19,3.13,3.13,0,0,1-1.11.81,3.57,3.57,0,0,1-1.51.29A3.62,3.62,0,0,1,172.3,44a3.05,3.05,0,0,1-1.09-.81,3.33,3.33,0,0,1-.68-1.19,5.12,5.12,0,0,1,0-3Zm1.22,2.65a2.32,2.32,0,0,0,.48.86A2,2,0,0,0,173,43a2.12,2.12,0,0,0,.87.18,2.2,2.2,0,0,0,.88-.18,2.14,2.14,0,0,0,.72-.52,2.64,2.64,0,0,0,.48-.86,3.86,3.86,0,0,0,0-2.33,2.64,2.64,0,0,0-.48-.86,2.05,2.05,0,0,0-1.6-.72,2.12,2.12,0,0,0-.87.18,2,2,0,0,0-.72.54,2.32,2.32,0,0,0-.48.86,3.86,3.86,0,0,0,0,2.33Z" transform="translate(0 0)" style="fill:#fff"/><path d="M180.05,37.89h-1.22v-1h1.22V35.76a1.69,1.69,0,0,1,.51-1.33,2.14,2.14,0,0,1,1.49-.46l.38,0a3,3,0,0,1,.39.08v1a1.69,1.69,0,0,0-.34-.08l-.33,0a1.16,1.16,0,0,0-.67.17.74.74,0,0,0-.24.64v1h1.4v1h-1.4v6.19h-1.19Z" transform="translate(0 0)" style="fill:#fff"/><path d="M190.43,41.78a3,3,0,0,1-1.05,1.83,3.22,3.22,0,0,1-2,.63,3.7,3.7,0,0,1-1.51-.28,3.14,3.14,0,0,1-1.07-.79,3.6,3.6,0,0,1-.65-1.21,6,6,0,0,1-.24-1.52,4.35,4.35,0,0,1,.25-1.51,3.46,3.46,0,0,1,.71-1.19A3.2,3.2,0,0,1,185.9,37a3.42,3.42,0,0,1,1.37-.28,3,3,0,0,1,1.6.4,3.11,3.11,0,0,1,1,1,3.73,3.73,0,0,1,.53,1.34,5.61,5.61,0,0,1,.12,1.39h-5.41a3,3,0,0,0,.11.9,2,2,0,0,0,.41.75,1.92,1.92,0,0,0,.71.53,2.48,2.48,0,0,0,1,.19,2,2,0,0,0,1.23-.35,1.67,1.67,0,0,0,.65-1.06Zm-1.15-2a2.39,2.39,0,0,0-.18-.8A2.07,2.07,0,0,0,188,37.88a2.18,2.18,0,0,0-1.64,0,2,2,0,0,0-1.06,1.1,2.53,2.53,0,0,0-.18.79Z" transform="translate(0 0)" style="fill:#fff"/><path d="M193.33,41.79a1.36,1.36,0,0,0,.18.68,1.26,1.26,0,0,0,.44.42,1.77,1.77,0,0,0,.62.23,3.2,3.2,0,0,0,.7.07,4.08,4.08,0,0,0,.59,0,2.51,2.51,0,0,0,.57-.15,1.14,1.14,0,0,0,.42-.33.84.84,0,0,0,.17-.55.81.81,0,0,0-.2-.57,1.76,1.76,0,0,0-.53-.36,4.29,4.29,0,0,0-.76-.23l-.87-.19a7.92,7.92,0,0,1-.87-.23,3.57,3.57,0,0,1-.76-.37,1.7,1.7,0,0,1-.53-.57,1.67,1.67,0,0,1-.21-.87,1.69,1.69,0,0,1,.25-.94,1.9,1.9,0,0,1,.63-.63,2.67,2.67,0,0,1,.86-.37,4.07,4.07,0,0,1,1-.12,5.78,5.78,0,0,1,1.13.11,2.6,2.6,0,0,1,.92.36,1.88,1.88,0,0,1,.64.7,2.69,2.69,0,0,1,.28,1.1h-1.19a1.14,1.14,0,0,0-.19-.58,1.37,1.37,0,0,0-.39-.37,1.81,1.81,0,0,0-.52-.2,2.25,2.25,0,0,0-.58-.07,4.9,4.9,0,0,0-.54,0,1.76,1.76,0,0,0-.49.15,1,1,0,0,0-.37.29.73.73,0,0,0-.14.45.64.64,0,0,0,.22.51,1.83,1.83,0,0,0,.55.33,4.56,4.56,0,0,0,.76.23l.84.19a8.56,8.56,0,0,1,.87.23,3.16,3.16,0,0,1,.76.37,2,2,0,0,1,.53.58,1.8,1.8,0,0,1,.2.87,2.07,2.07,0,0,1-.27,1.09,2,2,0,0,1-.72.7,2.88,2.88,0,0,1-1,.38,5.13,5.13,0,0,1-1.1.11,4.71,4.71,0,0,1-1.15-.13,3,3,0,0,1-1-.42,2.06,2.06,0,0,1-.67-.76,2.59,2.59,0,0,1-.28-1.14Z" transform="translate(0 0)" style="fill:#fff"/><path d="M201.15,41.79a1.36,1.36,0,0,0,.18.68,1.26,1.26,0,0,0,.44.42,1.77,1.77,0,0,0,.62.23,3.26,3.26,0,0,0,.7.07,4,4,0,0,0,.59,0,2.38,2.38,0,0,0,.57-.15,1.27,1.27,0,0,0,.43-.33.9.9,0,0,0,.16-.55.76.76,0,0,0-.2-.57,1.65,1.65,0,0,0-.53-.36,4.29,4.29,0,0,0-.76-.23l-.87-.19a7.92,7.92,0,0,1-.87-.23,3.28,3.28,0,0,1-.75-.37,1.63,1.63,0,0,1-.54-.57,1.67,1.67,0,0,1-.21-.87,1.78,1.78,0,0,1,.25-.94,1.9,1.9,0,0,1,.63-.63,2.63,2.63,0,0,1,.87-.37,3.93,3.93,0,0,1,.95-.12,5.7,5.7,0,0,1,1.13.11,2.6,2.6,0,0,1,.92.36,1.88,1.88,0,0,1,.64.7,2.69,2.69,0,0,1,.28,1.1h-1.19a1.14,1.14,0,0,0-.19-.58A1.25,1.25,0,0,0,204,38a1.71,1.71,0,0,0-.52-.2,2.25,2.25,0,0,0-.58-.07,5.09,5.09,0,0,0-.54,0,1.87,1.87,0,0,0-.49.15,1.06,1.06,0,0,0-.37.29.73.73,0,0,0-.14.45.67.67,0,0,0,.22.51,1.83,1.83,0,0,0,.55.33,4.87,4.87,0,0,0,.76.23l.84.19a7.92,7.92,0,0,1,.87.23,3.16,3.16,0,0,1,.76.37,2,2,0,0,1,.53.58,1.8,1.8,0,0,1,.2.87,2,2,0,0,1-1,1.79,3,3,0,0,1-1,.38,5.13,5.13,0,0,1-1.1.11,4.71,4.71,0,0,1-1.15-.13,3,3,0,0,1-1-.42,2.06,2.06,0,0,1-.67-.76,2.59,2.59,0,0,1-.28-1.14Z" transform="translate(0 0)" style="fill:#fff"/><path d="M209.5,35.54h-1.19V34.08h1.19Zm-1.19,1.3h1.19v7.24h-1.19Z" transform="translate(0 0)" style="fill:#fff"/><path d="M212,39a3.32,3.32,0,0,1,.67-1.21,3.07,3.07,0,0,1,1.1-.8,3.57,3.57,0,0,1,1.51-.3,3.65,3.65,0,0,1,1.52.3,3.15,3.15,0,0,1,1.1.8,3.32,3.32,0,0,1,.67,1.21,4.91,4.91,0,0,1,0,3,3.31,3.31,0,0,1-.67,1.19,3.18,3.18,0,0,1-1.1.81,3.65,3.65,0,0,1-1.52.29,3.57,3.57,0,0,1-1.51-.29,3.09,3.09,0,0,1-1.1-.81A3.31,3.31,0,0,1,212,42a4.91,4.91,0,0,1,0-3Zm1.21,2.65a2.32,2.32,0,0,0,.48.86,2,2,0,0,0,.72.52,2.22,2.22,0,0,0,1.75,0,2.14,2.14,0,0,0,.72-.52,2.47,2.47,0,0,0,.48-.86,3.86,3.86,0,0,0,0-2.33,2.47,2.47,0,0,0-.48-.86,2.16,2.16,0,0,0-2.47-.54,2,2,0,0,0-.72.54,2.32,2.32,0,0,0-.48.86,3.86,3.86,0,0,0,0,2.33Z" transform="translate(0 0)" style="fill:#fff"/><path d="M221,36.84h1.12V38h0a2.44,2.44,0,0,1,1-1,2.82,2.82,0,0,1,1.38-.33,3.14,3.14,0,0,1,1.19.2,2,2,0,0,1,.77.54,2.2,2.2,0,0,1,.41.84,4.43,4.43,0,0,1,.12,1.07v4.76h-1.19v-4.9a1.35,1.35,0,0,0-1.47-1.46,2.43,2.43,0,0,0-.94.17,1.72,1.72,0,0,0-.67.48,2.1,2.1,0,0,0-.4.72,3.15,3.15,0,0,0-.13.9v4.09H221Z" transform="translate(0 0)" style="fill:#fff"/><path d="M236.05,44.08a2.74,2.74,0,0,1-.37.11,1.8,1.8,0,0,1-.49.05,1,1,0,0,1-.73-.26,1.17,1.17,0,0,1-.28-.86A2.79,2.79,0,0,1,233,44a3.79,3.79,0,0,1-1.4.26,3.49,3.49,0,0,1-.93-.11,2,2,0,0,1-.77-.36,1.77,1.77,0,0,1-.51-.63,2.14,2.14,0,0,1-.18-.93,2.09,2.09,0,0,1,.21-1,1.77,1.77,0,0,1,.55-.63,2.81,2.81,0,0,1,.78-.37c.3-.09.6-.16.9-.22s.64-.11.93-.15a4.64,4.64,0,0,0,.77-.14,1.38,1.38,0,0,0,.53-.26.66.66,0,0,0,.19-.51,1.15,1.15,0,0,0-.14-.63.94.94,0,0,0-.37-.37,1.61,1.61,0,0,0-.51-.17,5.66,5.66,0,0,0-.57,0,2.55,2.55,0,0,0-1.26.29,1.21,1.21,0,0,0-.55,1.08h-1.18a2.45,2.45,0,0,1,.28-1.13,2,2,0,0,1,.67-.75,2.76,2.76,0,0,1,1-.41,5.4,5.4,0,0,1,1.15-.13,7.77,7.77,0,0,1,1,.07,2.76,2.76,0,0,1,.88.29,1.67,1.67,0,0,1,.63.61,2,2,0,0,1,.23,1v3.72a3,3,0,0,0,0,.62c0,.13.15.19.33.19a1,1,0,0,0,.37-.07Zm-1.94-3.73a1.36,1.36,0,0,1-.42.19l-.53.11c-.18,0-.38.06-.59.09a6,6,0,0,0-.61.09,4.58,4.58,0,0,0-.56.14,1.33,1.33,0,0,0-.46.23,1.14,1.14,0,0,0-.32.37,1.19,1.19,0,0,0-.12.56,1,1,0,0,0,.12.5,1.22,1.22,0,0,0,.31.33,1.45,1.45,0,0,0,.44.18,2.32,2.32,0,0,0,.53,0,2.74,2.74,0,0,0,1-.16,2.09,2.09,0,0,0,.69-.4,1.9,1.9,0,0,0,.39-.53,1.47,1.47,0,0,0,.12-.54Z" transform="translate(0 0)" style="fill:#fff"/><path d="M238.05,34.08h1.19v10h-1.19Z" transform="translate(0 0)" style="fill:#fff"/><path d="M242.64,41.79a1.36,1.36,0,0,0,.18.68,1.26,1.26,0,0,0,.44.42,1.79,1.79,0,0,0,.61.23,3.35,3.35,0,0,0,.71.07,4.08,4.08,0,0,0,.59,0,2.65,2.65,0,0,0,.57-.15,1.14,1.14,0,0,0,.42-.33.9.9,0,0,0,.17-.55.81.81,0,0,0-.2-.57,1.9,1.9,0,0,0-.53-.36,4.56,4.56,0,0,0-.76-.23l-.87-.19a7.92,7.92,0,0,1-.87-.23,3.57,3.57,0,0,1-.76-.37,1.84,1.84,0,0,1-.54-.57,1.78,1.78,0,0,1-.2-.87,1.69,1.69,0,0,1,.25-.94,1.9,1.9,0,0,1,.63-.63,2.67,2.67,0,0,1,.86-.37,4,4,0,0,1,1-.12,5.78,5.78,0,0,1,1.13.11,2.6,2.6,0,0,1,.92.36,1.88,1.88,0,0,1,.64.7,2.69,2.69,0,0,1,.28,1.1h-1.19a1.14,1.14,0,0,0-.19-.58,1.37,1.37,0,0,0-.39-.37,1.81,1.81,0,0,0-.52-.2,2.25,2.25,0,0,0-.58-.07,4.9,4.9,0,0,0-.54,0,1.94,1.94,0,0,0-.5.15.94.94,0,0,0-.36.29.73.73,0,0,0-.14.45.64.64,0,0,0,.22.51,1.83,1.83,0,0,0,.55.33,4.56,4.56,0,0,0,.76.23l.83.19a8.75,8.75,0,0,1,.88.23,3.09,3.09,0,0,1,.75.37,2,2,0,0,1,.54.58,1.8,1.8,0,0,1,.2.87,2.07,2.07,0,0,1-.27,1.09,2.1,2.1,0,0,1-.72.7,2.88,2.88,0,0,1-1,.38,5.2,5.2,0,0,1-1.1.11,4.71,4.71,0,0,1-1.15-.13,3,3,0,0,1-1-.42,2,2,0,0,1-.67-.76,2.59,2.59,0,0,1-.28-1.14Z" transform="translate(0 0)" style="fill:#fff"/></g></svg>